<?xml version="1.0" encoding="UTF-8"?><svg xmlns="http://www.w3.org/2000/svg" viewBox="0 0 1035 600"><defs><style>.c{fill:#ecbd35;}.d{fill:#163885;}.e{fill:none;opacity:.2;}</style></defs><g id="a"/><g id="b"><g><g><g><g><path class="d" d="M488.82,236.1c-1.45-1.88-3.28-3.33-5.49-4.34-2.22-1.01-4.51-1.52-6.87-1.52-2.89,0-5.51,.54-7.84,1.63-2.34,1.08-4.34,2.57-6,4.45-1.66,1.88-2.95,4.08-3.87,6.62-.92,2.53-1.37,5.24-1.37,8.13,0,2.7,.43,5.25,1.3,7.66,.87,2.41,2.12,4.53,3.76,6.36,1.64,1.83,3.64,3.28,6,4.34,2.36,1.06,5.04,1.59,8.03,1.59s5.52-.6,7.74-1.81c2.22-1.2,4.1-2.89,5.64-5.06l5.86,4.41c-.39,.53-1.06,1.29-2.02,2.28-.96,.99-2.24,1.98-3.83,2.96-1.59,.99-3.51,1.86-5.75,2.6-2.24,.75-4.83,1.12-7.77,1.12-4.05,0-7.7-.77-10.95-2.31-3.25-1.54-6.03-3.57-8.31-6.07-2.29-2.51-4.04-5.34-5.24-8.5-1.21-3.16-1.81-6.35-1.81-9.58,0-3.95,.65-7.6,1.95-10.95,1.3-3.35,3.12-6.24,5.46-8.68,2.34-2.43,5.14-4.33,8.42-5.68,3.28-1.35,6.89-2.02,10.84-2.02,3.37,0,6.69,.65,9.94,1.95,3.25,1.3,5.92,3.3,7.99,6l-5.78,4.41Z"/><path class="d" d="M504.73,225.03h6.94v44.68h23.5v6.51h-30.44v-51.19Z"/><path class="d" d="M549.12,211.73h9.25l-10.77,10.41h-6l7.52-10.41Zm-6.22,13.3h6.94v51.19h-6.94v-51.19Z"/><path class="d" d="M563.65,225.03h9.11l28.2,42.08h.14v-42.08h6.94v51.19h-8.82l-28.49-42.08h-.14v42.08h-6.94v-51.19Z"/><path class="d" d="M621.85,225.03h6.94v51.19h-6.94v-51.19Z"/><path class="d" d="M678.25,236.1c-1.45-1.88-3.28-3.33-5.49-4.34-2.22-1.01-4.51-1.52-6.87-1.52-2.89,0-5.51,.54-7.84,1.63-2.34,1.08-4.34,2.57-6,4.45-1.66,1.88-2.95,4.08-3.87,6.62-.92,2.53-1.37,5.24-1.37,8.13,0,2.7,.43,5.25,1.3,7.66,.87,2.41,2.12,4.53,3.76,6.36,1.64,1.83,3.64,3.28,6,4.34,2.36,1.06,5.04,1.59,8.03,1.59s5.52-.6,7.74-1.81c2.22-1.2,4.1-2.89,5.64-5.06l5.86,4.41c-.39,.53-1.06,1.29-2.02,2.28-.96,.99-2.24,1.98-3.83,2.96-1.59,.99-3.51,1.86-5.75,2.6-2.24,.75-4.83,1.12-7.77,1.12-4.05,0-7.7-.77-10.95-2.31-3.25-1.54-6.03-3.57-8.31-6.07-2.29-2.51-4.04-5.34-5.24-8.5-1.21-3.16-1.81-6.35-1.81-9.58,0-3.95,.65-7.6,1.95-10.95,1.3-3.35,3.12-6.24,5.46-8.68,2.34-2.43,5.14-4.33,8.42-5.68,3.28-1.35,6.89-2.02,10.84-2.02,3.37,0,6.69,.65,9.94,1.95,3.25,1.3,5.92,3.3,7.99,6l-5.78,4.41Z"/><path class="d" d="M710.2,225.03h6.29l21.91,51.19h-8.1l-5.13-12.65h-24.36l-5.06,12.65h-8.1l22.56-51.19Zm12.44,32.46l-9.54-23.5h-.14l-9.69,23.5h19.38Z"/></g><g><path class="d" d="M450.05,299.98h10.35l16.29,38.81h.29l16.15-38.81h10.35v51.26h-6.95v-42.14h-.14l-17.31,42.14h-4.63l-17.31-42.14h-.14v42.14h-6.95v-51.26Z"/><path class="d" d="M516.8,299.98h33.09v6.52h-26.14v15.28h24.33v6.52h-24.33v16.44h27.44v6.52h-34.39v-51.26Zm18.32-13.32h9.27l-10.79,10.43h-6.01l7.53-10.43Z"/><path class="d" d="M560.54,299.98h17.88c3.62,0,6.79,.41,9.52,1.23,2.73,.82,5.09,1.92,7.1,3.29,2,1.38,3.67,2.96,5,4.74,1.33,1.79,2.38,3.62,3.15,5.5,.77,1.88,1.33,3.77,1.67,5.65,.34,1.88,.51,3.62,.51,5.21,0,3.28-.6,6.46-1.81,9.52-1.21,3.07-2.99,5.79-5.36,8.18-2.37,2.39-5.3,4.31-8.8,5.76-3.5,1.45-7.54,2.17-12.13,2.17h-16.73v-51.26Zm6.95,44.75h8.76c2.94,0,5.73-.4,8.36-1.19,2.63-.8,4.94-1.99,6.91-3.58,1.98-1.59,3.55-3.58,4.71-5.97,1.16-2.39,1.74-5.18,1.74-8.36,0-1.64-.27-3.56-.8-5.76-.53-2.2-1.53-4.28-3-6.26-1.47-1.98-3.51-3.66-6.12-5.03-2.61-1.38-5.99-2.06-10.14-2.06h-10.43v38.23Z"/><path class="d" d="M616,299.98h6.95v51.26h-6.95v-51.26Z"/><path class="d" d="M672.48,311.05c-1.45-1.88-3.28-3.33-5.5-4.34-2.22-1.01-4.51-1.52-6.88-1.52-2.9,0-5.52,.54-7.86,1.63-2.34,1.09-4.34,2.57-6.01,4.45-1.67,1.88-2.96,4.09-3.87,6.62-.92,2.53-1.38,5.25-1.38,8.15,0,2.7,.43,5.26,1.3,7.67,.87,2.41,2.12,4.54,3.77,6.37,1.64,1.83,3.64,3.28,6.01,4.34,2.36,1.06,5.04,1.59,8.04,1.59s5.53-.6,7.75-1.81c2.22-1.21,4.1-2.9,5.65-5.07l5.87,4.42c-.39,.53-1.06,1.29-2.03,2.28-.97,.99-2.24,1.98-3.84,2.97-1.59,.99-3.51,1.86-5.76,2.61-2.24,.75-4.84,1.12-7.78,1.12-4.05,0-7.71-.77-10.97-2.32-3.26-1.54-6.03-3.57-8.33-6.08-2.29-2.51-4.04-5.35-5.25-8.51-1.21-3.16-1.81-6.36-1.81-9.59,0-3.96,.65-7.61,1.96-10.97,1.3-3.35,3.12-6.25,5.47-8.69,2.34-2.44,5.15-4.33,8.44-5.68,3.28-1.35,6.9-2.03,10.86-2.03,3.38,0,6.7,.65,9.96,1.96,3.26,1.3,5.92,3.31,8,6.01l-5.79,4.42Z"/><path class="d" d="M704.48,299.98h6.3l21.94,51.26h-8.11l-5.14-12.67h-24.4l-5.07,12.67h-8.11l22.59-51.26Zm12.45,32.51l-9.56-23.53h-.14l-9.7,23.53h19.4Z"/></g><g><path class="d" d="M450.05,375.04h34.78v10.41h-23.5v9.55h22.2v10.41h-22.2v10.41h24.8v10.41h-36.08v-51.2Z"/><path class="d" d="M496.26,375.04h11.28v40.78h20.9v10.41h-32.18v-51.2Z"/><path class="d" d="M557.36,375.04h19.81c2.6,0,5.07,.25,7.41,.76,2.34,.51,4.39,1.35,6.15,2.53,1.76,1.18,3.16,2.77,4.19,4.77,1.04,2,1.55,4.5,1.55,7.48,0,3.62-.94,6.69-2.82,9.22-1.88,2.53-4.63,4.13-8.24,4.81l13.02,21.62h-13.52l-10.7-20.46h-5.57v20.46h-11.28v-51.2Zm11.28,21.19h6.65c1.01,0,2.08-.04,3.22-.11,1.13-.07,2.16-.29,3.07-.65,.92-.36,1.67-.93,2.28-1.7,.6-.77,.9-1.86,.9-3.25,0-1.3-.27-2.34-.8-3.11-.53-.77-1.21-1.36-2.02-1.77-.82-.41-1.76-.69-2.82-.83-1.06-.14-2.1-.22-3.11-.22h-7.38v11.64Z"/><path class="d" d="M602.12,400.64c0-4.1,.69-7.81,2.06-11.14,1.37-3.33,3.29-6.16,5.75-8.5,2.46-2.34,5.38-4.13,8.75-5.39,3.37-1.25,7.06-1.88,11.06-1.88s7.69,.63,11.06,1.88c3.37,1.25,6.29,3.05,8.75,5.39,2.46,2.34,4.37,5.17,5.75,8.5,1.37,3.33,2.06,7.04,2.06,11.14s-.69,7.81-2.06,11.14c-1.37,3.33-3.29,6.16-5.75,8.5-2.46,2.34-5.38,4.13-8.75,5.39-3.38,1.25-7.06,1.88-11.06,1.88s-7.69-.63-11.06-1.88c-3.37-1.25-6.29-3.05-8.75-5.39-2.46-2.34-4.37-5.17-5.75-8.5-1.37-3.33-2.06-7.04-2.06-11.14Zm11.71,0c0,2.41,.37,4.62,1.12,6.62,.75,2,1.82,3.74,3.22,5.21,1.4,1.47,3.07,2.62,5.03,3.43,1.95,.82,4.13,1.23,6.54,1.23s4.59-.41,6.54-1.23c1.95-.82,3.63-1.96,5.03-3.43,1.4-1.47,2.47-3.21,3.22-5.21,.75-2,1.12-4.21,1.12-6.62s-.37-4.56-1.12-6.58c-.75-2.02-1.82-3.77-3.22-5.24-1.4-1.47-3.07-2.61-5.03-3.43-1.95-.82-4.13-1.23-6.54-1.23s-4.59,.41-6.54,1.23c-1.95,.82-3.63,1.96-5.03,3.43-1.4,1.47-2.47,3.22-3.22,5.24-.75,2.02-1.12,4.22-1.12,6.58Z"/><path class="d" d="M690.99,387.55c-.92-1.16-2.16-2.01-3.72-2.57-1.57-.55-3.05-.83-4.45-.83-.82,0-1.66,.1-2.53,.29-.87,.19-1.69,.49-2.46,.9-.77,.41-1.4,.95-1.88,1.63-.48,.68-.72,1.49-.72,2.46,0,1.54,.58,2.72,1.74,3.54,1.16,.82,2.61,1.52,4.37,2.1,1.76,.58,3.65,1.16,5.68,1.74,2.02,.58,3.92,1.4,5.68,2.46,1.76,1.06,3.22,2.48,4.37,4.27,1.16,1.78,1.74,4.17,1.74,7.16s-.53,5.33-1.59,7.45c-1.06,2.12-2.49,3.88-4.3,5.28-1.81,1.4-3.9,2.44-6.29,3.11-2.39,.67-4.91,1.01-7.56,1.01-3.33,0-6.41-.51-9.26-1.52-2.85-1.01-5.5-2.65-7.95-4.92l8.03-8.82c1.16,1.54,2.61,2.74,4.37,3.58,1.76,.84,3.58,1.27,5.46,1.27,.92,0,1.84-.11,2.78-.33s1.78-.54,2.53-.98c.75-.43,1.35-.99,1.81-1.66,.46-.67,.69-1.47,.69-2.39,0-1.54-.59-2.76-1.77-3.65-1.18-.89-2.66-1.65-4.45-2.28-1.78-.63-3.71-1.25-5.79-1.88-2.07-.63-4-1.47-5.78-2.53-1.78-1.06-3.27-2.46-4.45-4.19-1.18-1.74-1.77-4.02-1.77-6.87s.54-5.16,1.63-7.23c1.09-2.07,2.53-3.81,4.34-5.21,1.81-1.4,3.89-2.45,6.25-3.15,2.36-.7,4.8-1.05,7.3-1.05,2.89,0,5.69,.41,8.39,1.23,2.7,.82,5.13,2.19,7.3,4.12l-7.74,8.46Z"/><path class="d" d="M724.69,375.04h9.33l22.27,51.2h-12.73l-4.41-10.85h-19.89l-4.27,10.85h-12.44l22.13-51.2Zm4.34,14.9l-6.22,15.91h12.51l-6.29-15.91Z"/><path class="d" d="M762.08,375.04h19.81c2.6,0,5.07,.25,7.41,.76,2.34,.51,4.39,1.35,6.15,2.53,1.76,1.18,3.16,2.77,4.19,4.77,1.04,2,1.55,4.5,1.55,7.48,0,3.62-.94,6.69-2.82,9.22-1.88,2.53-4.63,4.13-8.24,4.81l13.02,21.62h-13.52l-10.7-20.46h-5.57v20.46h-11.28v-51.2Zm11.28,21.19h6.65c1.01,0,2.08-.04,3.22-.11,1.13-.07,2.16-.29,3.07-.65,.92-.36,1.67-.93,2.28-1.7,.6-.77,.9-1.86,.9-3.25,0-1.3-.27-2.34-.8-3.11-.53-.77-1.21-1.36-2.02-1.77-.82-.41-1.76-.69-2.82-.83-1.06-.14-2.1-.22-3.11-.22h-7.38v11.64Z"/><path class="d" d="M809.44,375.04h11.28v51.2h-11.28v-51.2Z"/><path class="d" d="M828.89,400.64c0-4.1,.69-7.81,2.06-11.14,1.37-3.33,3.29-6.16,5.75-8.5,2.46-2.34,5.38-4.13,8.75-5.39,3.37-1.25,7.06-1.88,11.06-1.88s7.69,.63,11.06,1.88c3.37,1.25,6.29,3.05,8.75,5.39,2.46,2.34,4.37,5.17,5.75,8.5,1.37,3.33,2.06,7.04,2.06,11.14s-.69,7.81-2.06,11.14c-1.37,3.33-3.29,6.16-5.75,8.5-2.46,2.34-5.38,4.13-8.75,5.39-3.38,1.25-7.06,1.88-11.06,1.88s-7.69-.63-11.06-1.88c-3.37-1.25-6.29-3.05-8.75-5.39-2.46-2.34-4.37-5.17-5.75-8.5-1.37-3.33-2.06-7.04-2.06-11.14Zm11.71,0c0,2.41,.37,4.62,1.12,6.62,.75,2,1.82,3.74,3.22,5.21,1.4,1.47,3.07,2.62,5.03,3.43,1.95,.82,4.13,1.23,6.54,1.23s4.59-.41,6.54-1.23c1.95-.82,3.63-1.96,5.03-3.43,1.4-1.47,2.47-3.21,3.22-5.21,.75-2,1.12-4.21,1.12-6.62s-.37-4.56-1.12-6.58c-.75-2.02-1.82-3.77-3.22-5.24-1.4-1.47-3.07-2.61-5.03-3.43-1.95-.82-4.13-1.23-6.54-1.23s-4.59,.41-6.54,1.23c-1.95,.82-3.63,1.96-5.03,3.43-1.4,1.47-2.47,3.22-3.22,5.24-.75,2.02-1.12,4.22-1.12,6.58Z"/></g></g><g><path class="d" d="M373.36,375.04c-18.91,18.55-44.8,30-73.36,30-57.9,0-104.84-47.01-104.84-105s46.94-105,104.84-105c28.56,0,54.45,11.45,73.36,30h56.57c-25.94-44.83-74.41-75-129.93-75-82.84,0-150,67.16-150,150s67.16,150,150,150c55.52,0,103.99-30.17,129.93-75h-56.57Z"/><g><rect class="c" x="306.18" y="215.58" width="18.33" height="168.93"/><rect class="c" x="263.05" y="233.55" width="18.33" height="150.96"/><path class="c" d="M355.42,328.36h-92.37c-10.86,0-21.05-2.2-29.48-6.37-8.3-4.11-14.61-10.05-17.76-16.73-3.97-8.42-2.84-17.37,3.1-24.57,6.26-7.59,15.92-9.99,25.85-6.43,11.91,4.28,24.68,18,26.01,38.44h84.65v15.66Zm-119.5-40.05c-1.99,0-3.65,.78-4.93,2.34-2.06,2.5-2.39,5.02-1.02,7.93,2.77,5.88,11.93,11.81,25.02,13.59-1.33-12.04-8.47-20.63-15.53-23.17-1.28-.46-2.46-.69-3.54-.69Z"/></g></g></g><rect class="e" y="0" width="1035" height="600"/></g></g></svg>